<?xml version="1.0" encoding="UTF-8" standalone="no"?>
<!DOCTYPE svg PUBLIC "-//W3C//DTD SVG 1.1//EN" "http://www.w3.org/Graphics/SVG/1.1/DTD/svg11.dtd">
<svg xmlns="http://www.w3.org/2000/svg" version="1.1" viewBox="0.00 0.00 500.00 500.00">
<g stroke-width="2.00" fill="none" stroke-linecap="butt">
<path stroke="#99bb33" vector-effect="non-scaling-stroke" d="
  M 268.32 202.99
  L 268.30 203.53"
/>
<path stroke="#87ad1f" vector-effect="non-scaling-stroke" d="
  M 268.30 203.53
  C 221.34 223.75 172.79 266.36 191.25 324.21
  Q 196.44 340.49 207.63 355.38
  Q 209.10 357.33 210.20 358.28"
/>
<path stroke="#99bb33" vector-effect="non-scaling-stroke" d="
  M 210.20 358.28
  Q 210.29 358.58 210.05 358.99"
/>
<path stroke="#6a941e" vector-effect="non-scaling-stroke" d="
  M 210.20 358.28
  C 211.03 358.48 211.38 358.77 212.26 358.63
  Q 237.78 354.39 257.18 339.04
  C 275.61 324.45 285.24 303.14 286.21 279.43
  C 287.12 257.18 282.07 234.86 273.52 214.41
  Q 271.37 209.26 269.03 203.90
  Q 268.95 203.71 268.78 203.62
  Q 268.55 203.51 268.30 203.53"
/>
</g>
<path fill="#b6d434" d="
  M 268.32 202.99
  L 268.30 203.53
  C 221.34 223.75 172.79 266.36 191.25 324.21
  Q 196.44 340.49 207.63 355.38
  Q 209.10 357.33 210.20 358.28
  Q 210.29 358.58 210.05 358.99
  Q 189.79 355.50 172.45 344.80
  Q 148.25 329.88 139.46 303.52
  Q 133.74 286.40 135.19 266.27
  C 136.61 246.55 142.54 224.93 151.46 206.06
  C 166.06 175.13 186.21 147.65 210.09 123.47
  A 0.83 0.82 -44.8 0 1 211.26 123.47
  Q 238.57 151.30 258.59 184.43
  Q 262.89 191.55 268.32 202.99
  Z"
/>
<path fill="#7ba132" d="
  M 210.05 358.99
  Q 210.29 358.58 210.20 358.28
  C 211.03 358.48 211.38 358.77 212.26 358.63
  Q 237.78 354.39 257.18 339.04
  C 275.61 324.45 285.24 303.14 286.21 279.43
  C 287.12 257.18 282.07 234.86 273.52 214.41
  Q 271.37 209.26 269.03 203.90
  Q 268.95 203.71 268.78 203.62
  Q 268.55 203.51 268.30 203.53
  L 268.32 202.99
  Q 268.74 203.17 269.24 202.97
  Q 314.45 184.31 363.77 180.57
  Q 364.88 180.48 364.95 181.59
  Q 368.33 229.43 357.97 272.55
  C 351.32 300.26 339.76 326.10 320.97 347.00
  C 301.95 368.16 275.33 378.02 247.06 372.96
  Q 234.09 370.64 221.20 364.45
  Q 215.55 361.73 210.05 358.99
  Z"
/>
<path fill="#58860a" d="
  M 268.30 203.53
  Q 268.55 203.51 268.78 203.62
  Q 268.95 203.71 269.03 203.90
  Q 271.37 209.26 273.52 214.41
  C 282.07 234.86 287.12 257.18 286.21 279.43
  C 285.24 303.14 275.61 324.45 257.18 339.04
  Q 237.78 354.39 212.26 358.63
  C 211.38 358.77 211.03 358.48 210.20 358.28
  Q 209.10 357.33 207.63 355.38
  Q 196.44 340.49 191.25 324.21
  C 172.79 266.36 221.34 223.75 268.30 203.53
  Z"
/>
</svg>
